PathFileType	4	(X/Y/Z)	/Users/itak/Documents/Research/Walk-IL/dataset/trc/00427_00167.trc
DataRate	CameraRate	NumFrames	NumMarkers	Units	OrigDataRate	OrigDataStartFrame	OrigNumFrames
100.000000	100.000000	4	53	mm	100.000000	488	651
Frame#	Time	RPSI			LPSI			L3			STRN			T10			C7			CLAV			RBAK			LBAK			LSHO			LUPA			LAEL			LAOL			LWTS			LWPS			LFRA			LIFD			LHPS			LHTS			RSHO			RUPA			RAEL			RAOL			RWTS			RWPS			RFRA			RIFD			RHTS			RHPS			RBHD			LFHD			RFHD			LBHD			LHIP			RHIP			RASI			LASI			LKNE			LTHI			LANK			LTIP			LTOE			LMT1			LMT5			LHEE			RKNE			RTHI			RANK			RTIP			RTOE			RMT1			RMT5			RHEE			
		X1	Y1	Z1	X2	Y2	Z2	X3	Y3	Z3	X4	Y4	Z4	X5	Y5	Z5	X6	Y6	Z6	X7	Y7	Z7	X8	Y8	Z8	X9	Y9	Z9	X10	Y10	Z10	X11	Y11	Z11	X12	Y12	Z12	X13	Y13	Z13	X14	Y14	Z14	X15	Y15	Z15	X16	Y16	Z16	X17	Y17	Z17	X18	Y18	Z18	X19	Y19	Z19	X20	Y20	Z20	X21	Y21	Z21	X22	Y22	Z22	X23	Y23	Z23	X24	Y24	Z24	X25	Y25	Z25	X26	Y26	Z26	X27	Y27	Z27	X28	Y28	Z28	X29	Y29	Z29	X30	Y30	Z30	X31	Y31	Z31	X32	Y32	Z32	X33	Y33	Z33	X34	Y34	Z34	X35	Y35	Z35	X36	Y36	Z36	X37	Y37	Z37	X38	Y38	Z38	X39	Y39	Z39	X40	Y40	Z40	X41	Y41	Z41	X42	Y42	Z42	X43	Y43	Z43	X44	Y44	Z44	X45	Y45	Z45	X46	Y46	Z46	X47	Y47	Z47	X48	Y48	Z48	X49	Y49	Z49	X50	Y50	Z50	X51	Y51	Z51	X52	Y52	Z52	X53	Y53	Z53	

489	4.88	967.0597534179688	969.110595703125	901.4511108398438	1073.287109375	957.6590576171875	807.7899169921875	1023.41162109375	1052.013793945312	874.6056518554688	1237.087768554688	1233.868408203125	1036.177856445312	1016.863830566406	1174.10205078125	849.1812133789062	1077.050903320312	1441.4833984375	886.7471313476562	1221.281860351562	1346.740844726562	1000.201416015625	959.4547729492188	1332.86474609375	926.0059204101562	1116.149780273438	1384.076293945312	792.64697265625	1245.733764648438	1392.921508789062	803.556396484375	1303.756225585938	1275.242431640625	724.3373413085938	1354.671752929688	1065.778686523438	707.9782104492188	1254.332885742188	1040.277954101562	707.7544555664062	1412.95751953125	877.3060302734375	808.188720703125	1415.463989257812	854.6923217773438	737.8291625976562	1387.071533203125	981.5619506835938	719.9244384765625	1441.977661132812	712.231201171875	826.04833984375	1430.969848632812	776.1859741210938	751.5992431640625	1443.521484375	792.4326782226562	819.4241333007812	1028.352783203125	1419.011108398438	1058.596801757812	962.2152099609375	1367.125366210938	1110.1142578125	903.8394165039062	1089.427978515625	1180.213500976562	883.9618530273438	1064.08349609375	1120.153564453125	1026.691650390625	904.3270874023438	1231.894165039062	942.865234375	882.7822875976562	1244.319458007812	905.0366821289062	1032.652709960938	1198.525390625	1036.779541015625	748.7228393554688	1266.886352539062	1040.13134765625	809.9666137695312	1268.392822265625	965.9075927734375	800.9329223632812	1268.50732421875	1102.734619140625	1636.46435546875	999.4671630859375	1304.8017578125	1638.116577148438	955.9143676757812	1226.497924804688	1647.02197265625	1059.702026367188	1196.483032226562	1629.842407226562	848.7762451171875	1248.575927734375	844.2865600585938	838.820068359375	918.5750732421875	863.1106567382812	1071.991821289062	1040.611572265625	891.0399780273438	1117.076416015625	1243.826293945312	883.0394897460938	961.9766845703125	1281.736572265625	433.3128356933594	948.3377685546875	1291.916381835938	586.2345581054688	919.2110595703125	1244.853271484375	19.93027687072754	946.3910522460938	1286.902954101562	273.6212463378906	954.110107421875	1335.643676757812	47.29096984863281	1160.784301757812	1266.049926757812	52.05813598632812	1121.201171875	1349.676635742188	30.55009841918945	1051.587158203125	1172.721923828125	24.13560104370117	936.0223388671875	859.7694091796875	485.1020202636719	1062.149169921875	907.5985107421875	729.03759765625	1136.892456054688	602.4030151367188	190.9297943115234	865.5975341796875	772.8696899414062	372.388427734375	1020.953552246094	720.8486938476562	17.22795486450195	839.052734375	717.4514770507812	81.96628570556641	816.4264526367188	639.23876953125	66.02325439453125	886.8782958984375	605.822998046875	258.3017272949219	819.2025756835938	
490	4.89	970.2603759765625	969.7006225585938	903.0762329101562	1076.6416015625	958.2930297851562	809.4281616210938	1027.328857421875	1052.866577148438	876.060302734375	1241.280395507812	1234.350952148438	1037.967529296875	1021.225219726562	1174.994262695312	850.5798950195312	1082.052368164062	1442.22802734375	888.0255126953125	1225.770141601562	1347.271118164062	1001.976684570312	964.0568237304688	1333.889282226562	927.1521606445312	1121.401245117188	1384.614990234375	794.0093994140625	1250.869140625	1393.242309570312	805.5390625	1309.9443359375	1275.721313476562	727.0196533203125	1363.249633789062	1066.976440429688	711.6395263671875	1263.176879882812	1040.229125976562	710.7698364257812	1423.224975585938	879.5371704101562	812.4384155273438	1426.266723632812	856.76806640625	742.16748046875	1396.498413085938	983.1658935546875	723.9119873046875	1454.5888671875	714.97998046875	830.792724609375	1442.917236328125	778.6077880859375	756.156494140625	1455.039672851562	795.2138061523438	823.959716796875	1032.869262695312	1420.111938476562	1059.752807617188	966.6508178710938	1368.294677734375	1111.264282226562	909.5565185546875	1090.766479492188	1182.611206054688	890.1116943359375	1064.20068359375	1122.832275390625	1037.170776367188	910.338623046875	1237.161987304688	953.9465942382812	886.2886962890625	1249.53759765625	912.1246948242188	1034.211303710938	1201.657104492188	1052.1328125	755.9426879882812	1276.724365234375	1053.447387695312	817.5336303710938	1276.64990234375	979.610595703125	806.1506958007812	1276.36279296875	1108.166625976562	1637.347290039062	1000.797546386719	1310.368041992188	1638.187133789062	957.8189086914062	1231.805297851562	1647.35205078125	1061.386962890625	1202.3515625	1630.406127929688	850.3466186523438	1251.610961914062	844.3923950195312	840.2036743164062	922.0125732421875	863.7128295898438	1073.741333007812	1044.2744140625	892.0173950195312	1118.685546875	1247.22509765625	883.2431030273438	963.3468627929688	1283.097778320312	433.1649780273438	948.8150024414062	1293.830810546875	586.2412719726562	920.0929565429688	1244.861450195312	19.93511390686035	946.4166870117188	1287.644165039062	273.4564819335938	954.3724365234375	1335.626708984375	46.86012268066406	1160.697998046875	1266.149047851562	51.89745330810547	1121.244262695312	1349.843017578125	30.28949165344238	1051.602783203125	1172.718872070312	24.16484069824219	936.0674438476562	865.848388671875	485.4540100097656	1067.887451171875	913.2369995117188	729.5336303710938	1142.33544921875	608.0952758789062	193.4762115478516	868.5555419921875	778.7058715820312	373.2109069824219	1025.9248046875	724.6243286132812	15.83740139007568	843.9409790039062	723.11083984375	83.05687713623047	821.5075073242188	644.1961669921875	68.26413726806641	891.1185913085938	612.0702514648438	260.45361328125	821.6865844726562	
491	4.9	973.3264770507812	970.1976318359375	904.6162109375	1079.886474609375	958.852783203125	810.9830322265625	1031.073364257812	1053.674926757812	877.4400024414062	1245.317993164062	1234.79541015625	1039.683959960938	1025.401733398438	1175.867797851562	851.9381103515625	1086.848266601562	1442.93408203125	889.30859375	1230.073974609375	1347.775024414062	1003.712585449219	968.4815063476562	1334.876831054688	928.303466796875	1126.426635742188	1385.135864257812	795.3499145507812	1255.7783203125	1393.563720703125	807.4779052734375	1315.916625976562	1276.207153320312	729.712158203125	1371.688110351562	1068.216430664062	715.4385375976562	1271.898071289062	1040.234985351562	713.9288940429688	1433.304443359375	881.6851196289062	816.69091796875	1436.892578125	858.8621826171875	746.474853515625	1405.771606445312	984.8140869140625	727.9783935546875	1466.727294921875	717.5673828125	835.2777709960938	1454.557739257812	781.0112915039062	760.5713500976562	1466.201049804688	797.82177734375	828.3929443359375	1037.215576171875	1421.15576171875	1060.901489257812	970.9207153320312	1369.4130859375	1112.42626953125	915.1014404296875	1092.072509765625	1184.932250976562	896.103271484375	1064.293701171875	1125.443481445312	1047.419799804688	916.3980102539062	1242.120849609375	964.8713989257812	889.8772583007812	1254.547729492188	919.063232421875	1035.78466796875	1204.718872070312	1067.187255859375	763.408935546875	1285.769653320312	1066.489624023438	825.2142944335938	1284.280639648438	993.0352783203125	811.3827514648438	1283.580322265625	1113.43798828125	1638.19775390625	1002.078430175781	1315.764892578125	1638.197875976562	959.640869140625	1236.982299804688	1647.64599609375	1063.00537109375	1208.002319335938	1630.91845703125	851.8729858398438	1254.552734375	844.4530639648438	841.5758666992188	925.2703247070312	864.2880859375	1075.405883789062	1047.80029296875	892.9839477539062	1120.241333007812	1250.49267578125	883.4244995117188	964.683837890625	1284.395141601562	433.0025939941406	949.4146728515625	1295.69384765625	586.2396240234375	921.1038208007812	1244.852416992188	19.98509979248047	946.4732666015625	1288.354736328125	273.2893676757812	954.7775268554688	1335.592407226562	46.34214401245117	1160.627319335938	1266.25244140625	51.63654708862305	1121.355346679688	1350.014892578125	30.01703643798828	1051.646118164062	1172.701416015625	24.22060203552246	936.1430053710938	872.0266723632812	485.8203735351562	1073.6796875	918.977783203125	730.0433349609375	1147.83642578125	614.0858154296875	195.8945159912109	871.5300903320312	784.6242065429688	374.11962890625	1030.897705078125	729.1793212890625	15.17708873748779	849.8241577148438	729.2595825195312	84.06673431396484	827.0712280273438	649.6962280273438	70.65135192871094	895.9033813476562	618.4675903320312	262.33203125	823.9921264648438	
492	4.91	976.28955078125	970.59814453125	906.0778198242188	1083.0380859375	959.3527221679688	812.4569702148438	1034.653076171875	1054.4306640625	878.7557373046875	1249.2080078125	1235.202026367188	1041.3310546875	1029.409057617188	1176.721801757812	853.2579345703125	1091.447509765625	1443.604370117188	890.5958862304688	1234.200561523438	1348.250854492188	1005.409851074219	972.7310791015625	1335.82958984375	929.4607543945312	1131.233764648438	1385.645629882812	796.6746215820312	1260.471313476562	1393.896118164062	809.377197265625	1321.679321289062	1276.709228515625	732.40771484375	1379.947998046875	1069.505004882812	719.3436889648438	1280.457885742188	1040.30859375	717.2150268554688	1443.17138671875	883.7721557617188	820.9418334960938	1447.304809570312	860.983642578125	750.7498168945312	1414.856323242188	986.5128173828125	732.102294921875	1478.40966796875	720.0185546875	839.5265502929688	1465.873046875	783.4065551757812	764.853271484375	1477.001953125	800.2840576171875	832.728271484375	1041.401000976562	1422.132568359375	1062.044555664062	975.0399780273438	1370.472778320312	1113.609252929688	920.4740600585938	1093.340209960938	1187.197631835938	901.90673828125	1064.3642578125	1128.024536132812	1057.421630859375	922.45556640625	1246.752685546875	975.6245727539062	893.535888671875	1259.361083984375	925.8453369140625	1037.376953125	1207.728515625	1081.903686523438	771.0680541992188	1293.957641601562	1079.257202148438	832.943115234375	1291.236938476562	1006.179626464844	816.5999755859375	1290.17431640625	1118.548583984375	1639.00927734375	1003.316223144531	1320.98828125	1638.160766601562	961.3812255859375	1242.025024414062	1647.907836914062	1064.560913085938	1213.4267578125	1631.379638671875	853.3662109375	1257.410278320312	844.4776000976562	842.9411010742188	928.3692016601562	864.8597412109375	1077.048950195312	1051.198852539062	893.93701171875	1121.753784179688	1253.65185546875	883.5886840820312	965.99853515625	1285.617553710938	432.8228759765625	950.10546875	1297.5	586.2206420898438	922.2122192382812	1244.823608398438	20.07567405700684	946.553466796875	1289.034423828125	273.1256408691406	955.2871704101562	1335.544067382812	45.77783203125	1160.58056640625	1266.35595703125	51.29718399047852	1121.509033203125	1350.185424804688	29.74886894226074	1051.705200195312	1172.669677734375	24.29954528808594	936.242431640625	878.3369140625	486.1657409667969	1079.507690429688	924.849609375	730.5327758789062	1153.37255859375	620.3696899414062	198.1774291992188	874.5863647460938	790.6621704101562	375.0765380859375	1035.8671875	734.65380859375	15.4219274520874	856.8153686523438	735.8821411132812	85.0479736328125	833.1401977539062	655.7105712890625	73.19861602783203	901.2392578125	625.0259399414062	263.94580078125	826.1937255859375	
